
            <svg xmlns="http://www.w3.org/2000/svg" xmlns:cc="http://creativecommons.org/ns#" xmlns:rdf="http://www.w3.org/1999/02/22-rdf-syntax-ns#" version="1.1" width="955" height="165">
              <defs>
                <style type="text/css">svg{background-color:#fff}text,tspan{font:12px Arial}path{fill-opacity:0;stroke-width:2px;stroke:#000}circle{fill:#6b6659;stroke-width:2px;stroke:#000}.anchor text,.any-character text{fill:#fff}.anchor rect,.any-character rect{fill:#6b6659}.escape text,.charset-escape text,.literal text{fill:#000}.escape rect,.charset-escape rect{fill:#bada55}.literal rect{fill:#dae9e5}.charset .charset-box{fill:#cbcbba}.subexp .subexp-label tspan,.charset .charset-label tspan,.match-fragment .repeat-label tspan{font-size:10px}.repeat-label{cursor:help}.subexp .subexp-label tspan,.charset .charset-label tspan{dominant-baseline:text-after-edge}.subexp .subexp-box{stroke:#908c83;stroke-dasharray:6,2;stroke-width:2px;fill-opacity:0}.quote{fill:#908c83}
          </style>
              </defs>
              <metadata>
                <rdf:rdf>
                  <cc:license rdf:about="http://creativecommons.org/licenses/by/3.0/">
                    <cc:permits rdf:resource="http://creativecommons.org/ns#Reproduction"></cc:permits>
                    <cc:permits rdf:resource="http://creativecommons.org/ns#Distribution"></cc:permits>
                    <cc:requires rdf:resource="http://creativecommons.org/ns#Notice"></cc:requires>
                    <cc:requires rdf:resource="http://creativecommons.org/ns#Attribution"></cc:requires>
                    <cc:permits rdf:resource="http://creativecommons.org/ns#DerivativeWorks"></cc:permits>
                  </cc:license>
                </rdf:rdf>
              </metadata>
            <desc>Created with Snap</desc><g transform="matrix(1,0,0,1,15,10)" class="root"><g transform="matrix(1,0,0,1,10,0)" class="regexp match"><path d="M71,79.5H91M319,79.5H339M360,79.5H395M568,79.5H588M609,79.5H644M817,79.5H837"></path><g class="match-fragment" transform="matrix(1,0,0,1,0,67.5)"><g class="label anchor"><rect width="71" height="24"></rect><text x="0" y="0" transform="matrix(1,0,0,1,5,17)"><tspan>Start of line</tspan></text></g></g><g class="match-fragment subexp" transform="matrix(1,0,0,1,81,0)"><rect rx="3" ry="3" class="subexp-box" transform="matrix(1,0,0,1,0,14)" width="248" height="131"></rect><text x="0" y="0" transform="matrix(1,0,0,1,0,14)" class="subexp-label"><tspan>group #1</tspan></text><g transform="matrix(1,0,0,1,10,24)" class="regexp"><path d="M10,41q0,-10 10,-10M218,41q0,-10 -10,-10M10,84q0,10 10,10M218,84q0,10 -10,10M0,55.5q10,0 10,-10V41M228,55.5q-10,0 -10,-10V41M0,55.5q10,0 10,10V84M228,55.5q-10,0 -10,10V84"></path><g transform="matrix(1,0,0,1,20,0)" class="regexp-matches"><path d="M0,31h39.5M148.5,31H188M0,94h15M188,94H188"></path><g transform="matrix(1,0,0,1,39.5,0)" class="match"><path d="M25,31H35"></path><g class="match-fragment literal" transform="matrix(1,0,0,1,0,19)"><g class="label"><rect width="25" height="24" rx="3" ry="3"></rect><text x="0" y="0" transform="matrix(1,0,0,1,5,17)"><tspan class="quote">“</tspan><tspan>2</tspan><tspan class="quote">”</tspan></text></g></g><g class="match-fragment charset" transform="matrix(1,0,0,1,35,0)"><rect rx="3" ry="3" class="charset-box" transform="matrix(1,0,0,1,0,14)" width="74" height="34"></rect><text x="0" y="0" transform="matrix(1,0,0,1,0,14)" class="charset-label"><tspan>One of:</tspan></text><g transform="matrix(1,0,0,1,5,19)"><g transform="matrix(1,0,0,1,0,0)" class="charset-range"><text x="0" y="0" transform="matrix(1,0,0,1,30,16)">-</text><g class="literal" transform="matrix(1,0,0,1,0,0)"><g class="label"><rect width="25" height="24" rx="3" ry="3"></rect><text x="0" y="0" transform="matrix(1,0,0,1,5,17)"><tspan class="quote">“</tspan><tspan>0</tspan><tspan class="quote">”</tspan></text></g></g><g class="literal" transform="matrix(1,0,0,1,39,0)"><g class="label"><rect width="25" height="24" rx="3" ry="3"></rect><text x="0" y="0" transform="matrix(1,0,0,1,5,17)"><tspan class="quote">“</tspan><tspan>3</tspan><tspan class="quote">”</tspan></text></g></g></g></g></g></g><g transform="matrix(1,0,0,1,0,53)" class="match"><path d="M89,41H114"></path><g class="match-fragment" transform="matrix(1,0,0,1,0,0)"><path d="M0,41q10,0 10,-10v-21q0,-10 10,-10h64q10,0 10,10v21q0,10 10,10"></path><g transform="matrix(1,0,0,1,15,10)" class="charset"><rect rx="3" ry="3" class="charset-box" transform="matrix(1,0,0,1,0,14)" width="74" height="34"></rect><text x="0" y="0" transform="matrix(1,0,0,1,0,14)" class="charset-label"><tspan>One of:</tspan></text><g transform="matrix(1,0,0,1,5,19)"><g transform="matrix(1,0,0,1,0,0)" class="charset-range"><text x="0" y="0" transform="matrix(1,0,0,1,30,16)">-</text><g class="literal" transform="matrix(1,0,0,1,0,0)"><g class="label"><rect width="25" height="24" rx="3" ry="3"></rect><text x="0" y="0" transform="matrix(1,0,0,1,5,17)"><tspan class="quote">“</tspan><tspan>0</tspan><tspan class="quote">”</tspan></text></g></g><g class="literal" transform="matrix(1,0,0,1,39,0)"><g class="label"><rect width="25" height="24" rx="3" ry="3"></rect><text x="0" y="0" transform="matrix(1,0,0,1,5,17)"><tspan class="quote">“</tspan><tspan>1</tspan><tspan class="quote">”</tspan></text></g></g></g></g></g></g><g class="match-fragment charset" transform="matrix(1,0,0,1,114,10)"><rect rx="3" ry="3" class="charset-box" transform="matrix(1,0,0,1,0,14)" width="74" height="34"></rect><text x="0" y="0" transform="matrix(1,0,0,1,0,14)" class="charset-label"><tspan>One of:</tspan></text><g transform="matrix(1,0,0,1,5,19)"><g transform="matrix(1,0,0,1,0,0)" class="charset-range"><text x="0" y="0" transform="matrix(1,0,0,1,30,16)">-</text><g class="literal" transform="matrix(1,0,0,1,0,0)"><g class="label"><rect width="25" height="24" rx="3" ry="3"></rect><text x="0" y="0" transform="matrix(1,0,0,1,5,17)"><tspan class="quote">“</tspan><tspan>0</tspan><tspan class="quote">”</tspan></text></g></g><g class="literal" transform="matrix(1,0,0,1,39,0)"><g class="label"><rect width="25" height="24" rx="3" ry="3"></rect><text x="0" y="0" transform="matrix(1,0,0,1,5,17)"><tspan class="quote">“</tspan><tspan>9</tspan><tspan class="quote">”</tspan></text></g></g></g></g></g></g></g></g></g><g class="match-fragment literal" transform="matrix(1,0,0,1,339,67.5)"><g class="label"><rect width="21" height="24" rx="3" ry="3"></rect><text x="0" y="0" transform="matrix(1,0,0,1,5,17)"><tspan class="quote">“</tspan><tspan>:</tspan><tspan class="quote">”</tspan></text></g></g><g class="match-fragment subexp" transform="matrix(1,0,0,1,370,14.5)"><rect rx="3" ry="3" class="subexp-box" transform="matrix(1,0,0,1,0,14)" width="208" height="78"></rect><text x="0" y="0" transform="matrix(1,0,0,1,0,14)" class="subexp-label"><tspan>group #2</tspan></text><g transform="matrix(1,0,0,1,10,24)" class="regexp match"><path d="M89,41H114"></path><g class="match-fragment" transform="matrix(1,0,0,1,0,0)"><path d="M0,41q10,0 10,-10v-21q0,-10 10,-10h64q10,0 10,10v21q0,10 10,10"></path><g class="charset" transform="matrix(1,0,0,1,15,10)"><rect rx="3" ry="3" class="charset-box" transform="matrix(1,0,0,1,0,14)" width="74" height="34"></rect><text x="0" y="0" transform="matrix(1,0,0,1,0,14)" class="charset-label"><tspan>One of:</tspan></text><g transform="matrix(1,0,0,1,5,19)"><g transform="matrix(1,0,0,1,0,0)" class="charset-range"><text x="0" y="0" transform="matrix(1,0,0,1,30,16)">-</text><g class="literal" transform="matrix(1,0,0,1,0,0)"><g class="label"><rect width="25" height="24" rx="3" ry="3"></rect><text x="0" y="0" transform="matrix(1,0,0,1,5,17)"><tspan class="quote">“</tspan><tspan>0</tspan><tspan class="quote">”</tspan></text></g></g><g class="literal" transform="matrix(1,0,0,1,39,0)"><g class="label"><rect width="25" height="24" rx="3" ry="3"></rect><text x="0" y="0" transform="matrix(1,0,0,1,5,17)"><tspan class="quote">“</tspan><tspan>5</tspan><tspan class="quote">”</tspan></text></g></g></g></g></g></g><g class="match-fragment charset" transform="matrix(1,0,0,1,114,10)"><rect rx="3" ry="3" class="charset-box" transform="matrix(1,0,0,1,0,14)" width="74" height="34"></rect><text x="0" y="0" transform="matrix(1,0,0,1,0,14)" class="charset-label"><tspan>One of:</tspan></text><g transform="matrix(1,0,0,1,5,19)"><g transform="matrix(1,0,0,1,0,0)" class="charset-range"><text x="0" y="0" transform="matrix(1,0,0,1,30,16)">-</text><g class="literal" transform="matrix(1,0,0,1,0,0)"><g class="label"><rect width="25" height="24" rx="3" ry="3"></rect><text x="0" y="0" transform="matrix(1,0,0,1,5,17)"><tspan class="quote">“</tspan><tspan>0</tspan><tspan class="quote">”</tspan></text></g></g><g class="literal" transform="matrix(1,0,0,1,39,0)"><g class="label"><rect width="25" height="24" rx="3" ry="3"></rect><text x="0" y="0" transform="matrix(1,0,0,1,5,17)"><tspan class="quote">“</tspan><tspan>9</tspan><tspan class="quote">”</tspan></text></g></g></g></g></g></g></g><g class="match-fragment literal" transform="matrix(1,0,0,1,588,67.5)"><g class="label"><rect width="21" height="24" rx="3" ry="3"></rect><text x="0" y="0" transform="matrix(1,0,0,1,5,17)"><tspan class="quote">“</tspan><tspan>:</tspan><tspan class="quote">”</tspan></text></g></g><g class="match-fragment subexp" transform="matrix(1,0,0,1,619,14.5)"><rect rx="3" ry="3" class="subexp-box" transform="matrix(1,0,0,1,0,14)" width="208" height="78"></rect><text x="0" y="0" transform="matrix(1,0,0,1,0,14)" class="subexp-label"><tspan>group #3</tspan></text><g transform="matrix(1,0,0,1,10,24)" class="regexp match"><path d="M89,41H114"></path><g class="match-fragment" transform="matrix(1,0,0,1,0,0)"><path d="M0,41q10,0 10,-10v-21q0,-10 10,-10h64q10,0 10,10v21q0,10 10,10"></path><g class="charset" transform="matrix(1,0,0,1,15,10)"><rect rx="3" ry="3" class="charset-box" transform="matrix(1,0,0,1,0,14)" width="74" height="34"></rect><text x="0" y="0" transform="matrix(1,0,0,1,0,14)" class="charset-label"><tspan>One of:</tspan></text><g transform="matrix(1,0,0,1,5,19)"><g transform="matrix(1,0,0,1,0,0)" class="charset-range"><text x="0" y="0" transform="matrix(1,0,0,1,30,16)">-</text><g class="literal" transform="matrix(1,0,0,1,0,0)"><g class="label"><rect width="25" height="24" rx="3" ry="3"></rect><text x="0" y="0" transform="matrix(1,0,0,1,5,17)"><tspan class="quote">“</tspan><tspan>0</tspan><tspan class="quote">”</tspan></text></g></g><g class="literal" transform="matrix(1,0,0,1,39,0)"><g class="label"><rect width="25" height="24" rx="3" ry="3"></rect><text x="0" y="0" transform="matrix(1,0,0,1,5,17)"><tspan class="quote">“</tspan><tspan>5</tspan><tspan class="quote">”</tspan></text></g></g></g></g></g></g><g class="match-fragment charset" transform="matrix(1,0,0,1,114,10)"><rect rx="3" ry="3" class="charset-box" transform="matrix(1,0,0,1,0,14)" width="74" height="34"></rect><text x="0" y="0" transform="matrix(1,0,0,1,0,14)" class="charset-label"><tspan>One of:</tspan></text><g transform="matrix(1,0,0,1,5,19)"><g transform="matrix(1,0,0,1,0,0)" class="charset-range"><text x="0" y="0" transform="matrix(1,0,0,1,30,16)">-</text><g class="literal" transform="matrix(1,0,0,1,0,0)"><g class="label"><rect width="25" height="24" rx="3" ry="3"></rect><text x="0" y="0" transform="matrix(1,0,0,1,5,17)"><tspan class="quote">“</tspan><tspan>0</tspan><tspan class="quote">”</tspan></text></g></g><g class="literal" transform="matrix(1,0,0,1,39,0)"><g class="label"><rect width="25" height="24" rx="3" ry="3"></rect><text x="0" y="0" transform="matrix(1,0,0,1,5,17)"><tspan class="quote">“</tspan><tspan>9</tspan><tspan class="quote">”</tspan></text></g></g></g></g></g></g></g><g class="match-fragment" transform="matrix(1,0,0,1,837,67.5)"><g class="label anchor"><rect width="68" height="24"></rect><text x="0" y="0" transform="matrix(1,0,0,1,5,17)"><tspan>End of line</tspan></text></g></g></g><path d="M10,79.5H0M915,79.5H925"></path><circle cx="0" cy="79.5" r="5"></circle><circle cx="925" cy="79.5" r="5"></circle></g></svg>
          