
            <svg xmlns="http://www.w3.org/2000/svg" xmlns:cc="http://creativecommons.org/ns#" xmlns:rdf="http://www.w3.org/1999/02/22-rdf-syntax-ns#" version="1.1" width="351" height="161">
              <defs>
                <style type="text/css">svg{background-color:#fff}text,tspan{font:12px Arial}path{fill-opacity:0;stroke-width:2px;stroke:#000}circle{fill:#6b6659;stroke-width:2px;stroke:#000}.anchor text,.any-character text{fill:#fff}.anchor rect,.any-character rect{fill:#6b6659}.escape text,.charset-escape text,.literal text{fill:#000}.escape rect,.charset-escape rect{fill:#bada55}.literal rect{fill:#dae9e5}.charset .charset-box{fill:#cbcbba}.subexp .subexp-label tspan,.charset .charset-label tspan,.match-fragment .repeat-label tspan{font-size:10px}.repeat-label{cursor:help}.subexp .subexp-label tspan,.charset .charset-label tspan{dominant-baseline:text-after-edge}.subexp .subexp-box{stroke:#908c83;stroke-dasharray:6,2;stroke-width:2px;fill-opacity:0}.quote{fill:#908c83}
          </style>
              </defs>
              <metadata>
                <rdf:rdf>
                  <cc:license rdf:about="http://creativecommons.org/licenses/by/3.0/">
                    <cc:permits rdf:resource="http://creativecommons.org/ns#Reproduction"></cc:permits>
                    <cc:permits rdf:resource="http://creativecommons.org/ns#Distribution"></cc:permits>
                    <cc:requires rdf:resource="http://creativecommons.org/ns#Notice"></cc:requires>
                    <cc:requires rdf:resource="http://creativecommons.org/ns#Attribution"></cc:requires>
                    <cc:permits rdf:resource="http://creativecommons.org/ns#DerivativeWorks"></cc:permits>
                  </cc:license>
                </rdf:rdf>
              </metadata>
            <desc>Created with Snap</desc><g transform="matrix(1,0,0,1,15,10)" class="root"><g transform="matrix(1,0,0,1,10,0)" class="regexp match"><path d="M71,70.5H81M223,70.5H233"></path><g class="match-fragment" transform="matrix(1,0,0,1,0,58.5)"><g class="label anchor"><rect width="71" height="24"></rect><text x="0" y="0" transform="matrix(1,0,0,1,5,17)"><tspan>Start of line</tspan></text></g></g><g class="match-fragment subexp regexp" transform="matrix(1,0,0,1,81,0)"><path d="M10,22q0,-10 10,-10M132,22q0,-10 -10,-10M10,61q0,-10 10,-10M132,61q0,-10 -10,-10M10,80q0,10 10,10M132,80q0,10 -10,10M10,119q0,10 10,10M132,119q0,10 -10,10M0,70.5q10,0 10,-10V22M142,70.5q-10,0 -10,-10V22M0,70.5q10,0 10,10V119M142,70.5q-10,0 -10,10V119"></path><g transform="matrix(1,0,0,1,20,0)" class="regexp-matches"><path d="M0,12h38.5M63.5,12H102M0,51h2.5M84.5,51H102M0,90h3.5M83.5,90H102M0,129h0M87,129H102"></path><g transform="matrix(1,0,0,1,38.5,0)" class="match match-fragment literal"><g class="label"><rect width="25" height="24" rx="3" ry="3"></rect><text x="0" y="0" transform="matrix(1,0,0,1,5,17)"><tspan class="quote">“</tspan><tspan>1</tspan><tspan class="quote">”</tspan></text></g></g><g transform="matrix(1,0,0,1,2.5,29)" class="match"><path d="M21,22H46"></path><g class="match-fragment literal" transform="matrix(1,0,0,1,0,10)"><g class="label"><rect width="21" height="24" rx="3" ry="3"></rect><text x="0" y="0" transform="matrix(1,0,0,1,5,17)"><tspan class="quote">“</tspan><tspan>t</tspan><tspan class="quote">”</tspan></text></g></g><g class="match-fragment" transform="matrix(1,0,0,1,31,0)"><path d="M0,22q10,0 10,-10v-2q0,-10 10,-10h26q10,0 10,10v2q0,10 10,10"></path><g class="subexp regexp match match-fragment literal" transform="matrix(1,0,0,1,15,10)"><g class="label"><rect width="36" height="24" rx="3" ry="3"></rect><text x="0" y="0" transform="matrix(1,0,0,1,5,17)"><tspan class="quote">“</tspan><tspan>rue</tspan><tspan class="quote">”</tspan></text></g></g></g></g><g transform="matrix(1,0,0,1,3.5,68)" class="match"><path d="M24,22H49"></path><g class="match-fragment literal" transform="matrix(1,0,0,1,0,10)"><g class="label"><rect width="24" height="24" rx="3" ry="3"></rect><text x="0" y="0" transform="matrix(1,0,0,1,5,17)"><tspan class="quote">“</tspan><tspan>y</tspan><tspan class="quote">”</tspan></text></g></g><g class="match-fragment" transform="matrix(1,0,0,1,34,0)"><path d="M0,22q10,0 10,-10v-2q0,-10 10,-10h21q10,0 10,10v2q0,10 10,10"></path><g class="subexp regexp match match-fragment literal" transform="matrix(1,0,0,1,15,10)"><g class="label"><rect width="31" height="24" rx="3" ry="3"></rect><text x="0" y="0" transform="matrix(1,0,0,1,5,17)"><tspan class="quote">“</tspan><tspan>es</tspan><tspan class="quote">”</tspan></text></g></g></g></g><g transform="matrix(1,0,0,1,0,107)" class="match"><path d="M31,22H56"></path><g class="match-fragment literal" transform="matrix(1,0,0,1,0,10)"><g class="label"><rect width="31" height="24" rx="3" ry="3"></rect><text x="0" y="0" transform="matrix(1,0,0,1,5,17)"><tspan class="quote">“</tspan><tspan>ok</tspan><tspan class="quote">”</tspan></text></g></g><g class="match-fragment" transform="matrix(1,0,0,1,41,0)"><path d="M0,22q10,0 10,-10v-2q0,-10 10,-10h21q10,0 10,10v2q0,10 10,10"></path><g class="subexp regexp match match-fragment literal" transform="matrix(1,0,0,1,15,10)"><g class="label"><rect width="31" height="24" rx="3" ry="3"></rect><text x="0" y="0" transform="matrix(1,0,0,1,5,17)"><tspan class="quote">“</tspan><tspan>ay</tspan><tspan class="quote">”</tspan></text></g></g></g></g></g></g><g class="match-fragment" transform="matrix(1,0,0,1,233,58.5)"><g class="label anchor"><rect width="68" height="24"></rect><text x="0" y="0" transform="matrix(1,0,0,1,5,17)"><tspan>End of line</tspan></text></g></g></g><path d="M10,70.5H0M311,70.5H321"></path><circle cx="0" cy="70.5" r="5"></circle><circle cx="321" cy="70.5" r="5"></circle></g></svg>
          