
            <svg xmlns="http://www.w3.org/2000/svg" xmlns:cc="http://creativecommons.org/ns#" xmlns:rdf="http://www.w3.org/1999/02/22-rdf-syntax-ns#" version="1.1" width="608" height="285">
              <defs>
                <style type="text/css">svg{background-color:#fff}text,tspan{font:12px Arial}path{fill-opacity:0;stroke-width:2px;stroke:#000}circle{fill:#6b6659;stroke-width:2px;stroke:#000}.anchor text,.any-character text{fill:#fff}.anchor rect,.any-character rect{fill:#6b6659}.escape text,.charset-escape text,.literal text{fill:#000}.escape rect,.charset-escape rect{fill:#bada55}.literal rect{fill:#dae9e5}.charset .charset-box{fill:#cbcbba}.subexp .subexp-label tspan,.charset .charset-label tspan,.match-fragment .repeat-label tspan{font-size:10px}.repeat-label{cursor:help}.subexp .subexp-label tspan,.charset .charset-label tspan{dominant-baseline:text-after-edge}.subexp .subexp-box{stroke:#908c83;stroke-dasharray:6,2;stroke-width:2px;fill-opacity:0}.quote{fill:#908c83}
          </style>
              </defs>
              <metadata>
                <rdf:rdf>
                  <cc:license rdf:about="http://creativecommons.org/licenses/by/3.0/">
                    <cc:permits rdf:resource="http://creativecommons.org/ns#Reproduction"></cc:permits>
                    <cc:permits rdf:resource="http://creativecommons.org/ns#Distribution"></cc:permits>
                    <cc:requires rdf:resource="http://creativecommons.org/ns#Notice"></cc:requires>
                    <cc:requires rdf:resource="http://creativecommons.org/ns#Attribution"></cc:requires>
                    <cc:permits rdf:resource="http://creativecommons.org/ns#DerivativeWorks"></cc:permits>
                  </cc:license>
                </rdf:rdf>
              </metadata>
            <desc>Created with Snap</desc><g transform="matrix(1,0,0,1,15,10)" class="root"><g transform="matrix(1,0,0,1,10,0)" class="regexp match"><path d="M71,132.5H81"></path><g class="match-fragment" transform="matrix(1,0,0,1,0,120)"><g class="label anchor"><rect width="71" height="25"></rect><text x="0" y="0" transform="matrix(1,0,0,1,5,17.5)"><tspan>Start of line</tspan></text></g></g><g class="match-fragment subexp regexp" transform="matrix(1,0,0,1,81,0)"><path d="M10,82.5q0,-10 10,-10M467,82.5q0,-10 -10,-10M10,202.5q0,10 10,10M467,202.5q0,10 -10,10M0,132.5q10,0 10,-10V82.5M477,132.5q-10,0 -10,-10V82.5M0,132.5q10,0 10,10V202.5M477,132.5q-10,0 -10,10V202.5"></path><g transform="matrix(1,0,0,1,20,0)" class="regexp-matches"><path d="M0,72.5h15M437,72.5H437M0,212.5h113.5M323.5,212.5H437"></path><g transform="matrix(1,0,0,1,0,0)" class="match"><path d="M61,72.5H96M263,72.5H298M344,72.5H369"></path><g class="match-fragment" transform="matrix(1,0,0,1,0,15)"><path d="M0,57.5q10,0 10,-10v-37.5q0,-10 10,-10h36q10,0 10,10v37.5q0,10 10,10M15,57.5q-10,0 -10,10v22.5q0,10 10,10h46q10,0 10,-10v-22.5q0,-10 -10,-10M71,72.5l5,-5m-5,5l-5,-5"></path><g class="charset" transform="matrix(1,0,0,1,15,10)"><rect rx="3" ry="3" class="charset-box" transform="matrix(1,0,0,1,0,15)" width="46" height="65"></rect><text x="0" y="0" transform="matrix(1,0,0,1,0,15)" class="charset-label"><tspan>None of:</tspan></text><g transform="matrix(1,0,0,1,10.5,20)"><g class="literal" transform="matrix(1,0,0,1,0,0)"><g class="label"><rect width="25" height="25" rx="3" ry="3"></rect><text x="0" y="0" transform="matrix(1,0,0,1,5,17.5)"><tspan class="quote">“</tspan><tspan>#</tspan><tspan class="quote">”</tspan></text></g></g><g class="literal" transform="matrix(1,0,0,1,0,30)"><g class="label"><rect width="25" height="25" rx="3" ry="3"></rect><text x="0" y="0" transform="matrix(1,0,0,1,5,17.5)"><tspan class="quote">“</tspan><tspan>&lt;</tspan><tspan class="quote">”</tspan></text></g></g></g></g></g><g class="match-fragment subexp" transform="matrix(1,0,0,1,86,0)"><rect rx="3" ry="3" class="subexp-box" transform="matrix(1,0,0,1,0,15)" width="187" height="110"></rect><text x="0" y="0" transform="matrix(1,0,0,1,0,15)" class="subexp-label"><tspan>group #1</tspan></text><g class="regexp match" transform="matrix(1,0,0,1,10,25)"><path d="M25,47.5H45M117,47.5H142"></path><g class="match-fragment literal" transform="matrix(1,0,0,1,0,35)"><g class="label"><rect width="25" height="25" rx="3" ry="3"></rect><text x="0" y="0" transform="matrix(1,0,0,1,5,17.5)"><tspan class="quote">“</tspan><tspan>&lt;</tspan><tspan class="quote">”</tspan></text></g></g><g class="match-fragment" transform="matrix(1,0,0,1,35,0)"><path d="M10,47.5q-10,0 -10,10v22.5q0,10 10,10h72q10,0 10,-10v-22.5q0,-10 -10,-10M92,62.5l5,-5m-5,5l-5,-5"></path><g transform="matrix(1,0,0,1,10,0)" class="charset"><rect rx="3" ry="3" class="charset-box" transform="matrix(1,0,0,1,0,15)" width="72" height="65"></rect><text x="0" y="0" transform="matrix(1,0,0,1,0,15)" class="charset-label"><tspan>One of:</tspan></text><g transform="matrix(1,0,0,1,5,20)"><g class="charset-escape" transform="matrix(1,0,0,1,12.5,0)"><g class="label"><rect width="37" height="25" rx="3" ry="3"></rect><text x="0" y="0" transform="matrix(1,0,0,1,5,17.5)"><tspan>word</tspan></text></g></g><g class="charset-escape" transform="matrix(1,0,0,1,0,30)"><g class="label"><rect width="62" height="25" rx="3" ry="3"></rect><text x="0" y="0" transform="matrix(1,0,0,1,5,17.5)"><tspan>non-word</tspan></text></g></g></g></g></g><g class="match-fragment literal" transform="matrix(1,0,0,1,142,35)"><g class="label"><rect width="25" height="25" rx="3" ry="3"></rect><text x="0" y="0" transform="matrix(1,0,0,1,5,17.5)"><tspan class="quote">“</tspan><tspan>&gt;</tspan><tspan class="quote">”</tspan></text></g></g></g></g><g class="match-fragment" transform="matrix(1,0,0,1,283,30)"><path d="M0,42.5q10,0 10,-10v-22.5q0,-10 10,-10h36q10,0 10,10v22.5q0,10 10,10M15,42.5q-10,0 -10,10v7.5q0,10 10,10h46q10,0 10,-10v-7.5q0,-10 -10,-10M71,57.5l5,-5m-5,5l-5,-5"></path><g class="charset" transform="matrix(1,0,0,1,15,10)"><rect rx="3" ry="3" class="charset-box" transform="matrix(1,0,0,1,0,15)" width="46" height="35"></rect><text x="0" y="0" transform="matrix(1,0,0,1,0,15)" class="charset-label"><tspan>None of:</tspan></text><g transform="matrix(1,0,0,1,10.5,20)"><g class="literal" transform="matrix(1,0,0,1,0,0)"><g class="label"><rect width="25" height="25" rx="3" ry="3"></rect><text x="0" y="0" transform="matrix(1,0,0,1,5,17.5)"><tspan class="quote">“</tspan><tspan>&gt;</tspan><tspan class="quote">”</tspan></text></g></g></g></g></g><g class="match-fragment" transform="matrix(1,0,0,1,369,60)"><g class="label anchor"><rect width="68" height="25"></rect><text x="0" y="0" transform="matrix(1,0,0,1,5,17.5)"><tspan>End of line</tspan></text></g></g></g><g transform="matrix(1,0,0,1,113.5,130)" class="match"><path d="M25,82.5H60M107,82.5H142"></path><g class="match-fragment literal" transform="matrix(1,0,0,1,0,70)"><g class="label"><rect width="25" height="25" rx="3" ry="3"></rect><text x="0" y="0" transform="matrix(1,0,0,1,5,17.5)"><tspan class="quote">“</tspan><tspan>#</tspan><tspan class="quote">”</tspan></text></g></g><g class="match-fragment subexp" transform="matrix(1,0,0,1,35,0)"><rect rx="3" ry="3" class="subexp-box" transform="matrix(1,0,0,1,0,15)" width="97" height="120"></rect><text x="0" y="0" transform="matrix(1,0,0,1,0,15)" class="subexp-label"><tspan>group #2</tspan></text><g class="regexp match match-fragment" transform="matrix(1,0,0,1,10,25)"><path d="M0,57.5q10,0 10,-10v-37.5q0,-10 10,-10h37q10,0 10,10v37.5q0,10 10,10M15,57.5q-10,0 -10,10v22.5q0,10 10,10h47q10,0 10,-10v-22.5q0,-10 -10,-10M72,72.5l5,-5m-5,5l-5,-5"></path><g transform="matrix(1,0,0,1,15,10)" class="charset"><rect rx="3" ry="3" class="charset-box" transform="matrix(1,0,0,1,0,15)" width="47" height="65"></rect><text x="0" y="0" transform="matrix(1,0,0,1,0,15)" class="charset-label"><tspan>One of:</tspan></text><g transform="matrix(1,0,0,1,5,20)"><g class="charset-escape" transform="matrix(1,0,0,1,0,0)"><g class="label"><rect width="37" height="25" rx="3" ry="3"></rect><text x="0" y="0" transform="matrix(1,0,0,1,5,17.5)"><tspan>word</tspan></text></g></g><g class="literal" transform="matrix(1,0,0,1,7.5,30)"><g class="label"><rect width="22" height="25" rx="3" ry="3"></rect><text x="0" y="0" transform="matrix(1,0,0,1,5,17.5)"><tspan class="quote">“</tspan><tspan>-</tspan><tspan class="quote">”</tspan></text></g></g></g></g></g></g><g class="match-fragment" transform="matrix(1,0,0,1,142,70)"><g class="label anchor"><rect width="68" height="25"></rect><text x="0" y="0" transform="matrix(1,0,0,1,5,17.5)"><tspan>End of line</tspan></text></g></g></g></g></g></g><path d="M10,132.5H0M568,132.5H578"></path><circle cx="0" cy="132.5" r="5"></circle><circle cx="578" cy="132.5" r="5"></circle></g></svg>
          