
            <svg xmlns="http://www.w3.org/2000/svg" xmlns:cc="http://creativecommons.org/ns#" xmlns:rdf="http://www.w3.org/1999/02/22-rdf-syntax-ns#" version="1.1" width="805" height="88">
              <defs>
                <style type="text/css">svg{background-color:#fff}text,tspan{font:12px Arial}path{fill-opacity:0;stroke-width:2px;stroke:#000}circle{fill:#6b6659;stroke-width:2px;stroke:#000}.anchor text,.any-character text{fill:#fff}.anchor rect,.any-character rect{fill:#6b6659}.escape text,.charset-escape text,.literal text{fill:#000}.escape rect,.charset-escape rect{fill:#bada55}.literal rect{fill:#dae9e5}.charset .charset-box{fill:#cbcbba}.subexp .subexp-label tspan,.charset .charset-label tspan,.match-fragment .repeat-label tspan{font-size:10px}.repeat-label{cursor:help}.subexp .subexp-label tspan,.charset .charset-label tspan{dominant-baseline:text-after-edge}.subexp .subexp-box{stroke:#908c83;stroke-dasharray:6,2;stroke-width:2px;fill-opacity:0}.quote{fill:#908c83}
          </style>
              </defs>
              <metadata>
                <rdf:rdf>
                  <cc:license rdf:about="http://creativecommons.org/licenses/by/3.0/">
                    <cc:permits rdf:resource="http://creativecommons.org/ns#Reproduction"></cc:permits>
                    <cc:permits rdf:resource="http://creativecommons.org/ns#Distribution"></cc:permits>
                    <cc:requires rdf:resource="http://creativecommons.org/ns#Notice"></cc:requires>
                    <cc:requires rdf:resource="http://creativecommons.org/ns#Attribution"></cc:requires>
                    <cc:permits rdf:resource="http://creativecommons.org/ns#DerivativeWorks"></cc:permits>
                  </cc:license>
                </rdf:rdf>
              </metadata>
            <desc>Created with Snap</desc><g transform="matrix(1,0,0,1,15,10)" class="root"><g transform="matrix(1,0,0,1,10,0)" class="regexp match"><path d="M71,36H81M106,36H136M173,36H223M298,36H338M359,36H384M409,36H434M662,36H687"></path><g class="match-fragment" transform="matrix(1,0,0,1,0,24)"><g class="label anchor"><rect width="71" height="24"></rect><text x="0" y="0" transform="matrix(1,0,0,1,5,17)"><tspan>Start of line</tspan></text></g></g><g class="match-fragment literal" transform="matrix(1,0,0,1,81,24)"><g class="label"><rect width="25" height="24" rx="3" ry="3"></rect><text x="0" y="0" transform="matrix(1,0,0,1,5,17)"><tspan class="quote">“</tspan><tspan>&lt;</tspan><tspan class="quote">”</tspan></text></g></g><g class="match-fragment subexp" transform="matrix(1,0,0,1,116,0)"><rect rx="3" ry="3" class="subexp-box" transform="matrix(1,0,0,1,0,14)" width="82" height="54"></rect><text x="0" y="0" transform="matrix(1,0,0,1,0,14)" class="subexp-label"><tspan>group #1</tspan></text><g transform="matrix(1,0,0,1,10,24)" class="regexp match match-fragment"><path d="M10,12q-10,0 -10,10v2q0,10 10,10h37q10,0 10,-10v-2q0,-10 -10,-10M57,27l5,-5m-5,5l-5,-5"></path><g transform="matrix(1,0,0,1,10,0)" class="escape"><g class="label"><rect width="37" height="24" rx="3" ry="3"></rect><text x="0" y="0" transform="matrix(1,0,0,1,5,17)"><tspan>word</tspan></text></g></g></g></g><g class="match-fragment" transform="matrix(1,0,0,1,208,14)"><path d="M0,22q10,0 10,-10v-2q0,-10 10,-10h65q10,0 10,10v2q0,10 10,10M15,22q-10,0 -10,10v2q0,10 10,10h75q10,0 10,-10v-2q0,-10 -10,-10M100,37l5,-5m-5,5l-5,-5"></path><g class="escape" transform="matrix(1,0,0,1,15,10)"><g class="label"><rect width="75" height="24" rx="3" ry="3"></rect><text x="0" y="0" transform="matrix(1,0,0,1,5,17)"><tspan>white space</tspan></text></g></g></g><g class="match-fragment" transform="matrix(1,0,0,1,323,14)"><path d="M0,22q10,0 10,-10v-2q0,-10 10,-10h11q10,0 10,10v2q0,10 10,10"></path><g class="literal" transform="matrix(1,0,0,1,15,10)"><g class="label"><rect width="21" height="24" rx="3" ry="3"></rect><text x="0" y="0" transform="matrix(1,0,0,1,5,17)"><tspan class="quote">“</tspan><tspan>/</tspan><tspan class="quote">”</tspan></text></g></g></g><g class="match-fragment literal" transform="matrix(1,0,0,1,384,24)"><g class="label"><rect width="25" height="24" rx="3" ry="3"></rect><text x="0" y="0" transform="matrix(1,0,0,1,5,17)"><tspan class="quote">“</tspan><tspan>&gt;</tspan><tspan class="quote">”</tspan></text></g></g><g class="match-fragment" transform="matrix(1,0,0,1,419,14)"><path d="M0,22q10,0 10,-10v-2q0,-10 10,-10h218q10,0 10,10v2q0,10 10,10"></path><g class="subexp regexp match" transform="matrix(1,0,0,1,15,10)"><path d="M28,12H38M193,12H203"></path><g class="match-fragment literal" transform="matrix(1,0,0,1,0,0)"><g class="label"><rect width="28" height="24" rx="3" ry="3"></rect><text x="0" y="0" transform="matrix(1,0,0,1,5,17)"><tspan class="quote">“</tspan><tspan>&lt;/</tspan><tspan class="quote">”</tspan></text></g></g><g class="match-fragment escape" transform="matrix(1,0,0,1,38,0)"><g class="label"><rect width="155" height="24" rx="3" ry="3"></rect><text x="0" y="0" transform="matrix(1,0,0,1,5,17)"><tspan>Back reference (group = 1)</tspan></text></g></g><g class="match-fragment literal" transform="matrix(1,0,0,1,203,0)"><g class="label"><rect width="25" height="24" rx="3" ry="3"></rect><text x="0" y="0" transform="matrix(1,0,0,1,5,17)"><tspan class="quote">“</tspan><tspan>&gt;</tspan><tspan class="quote">”</tspan></text></g></g></g></g><g class="match-fragment" transform="matrix(1,0,0,1,687,24)"><g class="label anchor"><rect width="68" height="24"></rect><text x="0" y="0" transform="matrix(1,0,0,1,5,17)"><tspan>End of line</tspan></text></g></g></g><path d="M10,36H0M765,36H775"></path><circle cx="0" cy="36" r="5"></circle><circle cx="775" cy="36" r="5"></circle></g></svg>
          