
            <svg xmlns="http://www.w3.org/2000/svg" xmlns:cc="http://creativecommons.org/ns#" xmlns:rdf="http://www.w3.org/1999/02/22-rdf-syntax-ns#" version="1.1" width="223" height="107">
              <defs>
                <style type="text/css">svg{background-color:#fff}text,tspan{font:12px Arial}path{fill-opacity:0;stroke-width:2px;stroke:#000}circle{fill:#6b6659;stroke-width:2px;stroke:#000}.anchor text,.any-character text{fill:#fff}.anchor rect,.any-character rect{fill:#6b6659}.escape text,.charset-escape text,.literal text{fill:#000}.escape rect,.charset-escape rect{fill:#bada55}.literal rect{fill:#dae9e5}.charset .charset-box{fill:#cbcbba}.subexp .subexp-label tspan,.charset .charset-label tspan,.match-fragment .repeat-label tspan{font-size:10px}.repeat-label{cursor:help}.subexp .subexp-label tspan,.charset .charset-label tspan{dominant-baseline:text-after-edge}.subexp .subexp-box{stroke:#908c83;stroke-dasharray:6,2;stroke-width:2px;fill-opacity:0}.quote{fill:#908c83}
          </style>
              </defs>
              <metadata>
                <rdf:rdf>
                  <cc:license rdf:about="http://creativecommons.org/licenses/by/3.0/">
                    <cc:permits rdf:resource="http://creativecommons.org/ns#Reproduction"></cc:permits>
                    <cc:permits rdf:resource="http://creativecommons.org/ns#Distribution"></cc:permits>
                    <cc:requires rdf:resource="http://creativecommons.org/ns#Notice"></cc:requires>
                    <cc:requires rdf:resource="http://creativecommons.org/ns#Attribution"></cc:requires>
                    <cc:permits rdf:resource="http://creativecommons.org/ns#DerivativeWorks"></cc:permits>
                  </cc:license>
                </rdf:rdf>
              </metadata>
            <desc>Created with Snap</desc><g transform="matrix(1,0,0,1,15,10)" class="root"><g transform="matrix(1,0,0,1,10,0)" class="regexp match"><path d="M34,50.5H54M121,50.5H141"></path><g class="match-fragment literal" transform="matrix(1,0,0,1,0,38.5)"><g class="label"><rect width="34" height="24" rx="3" ry="3"></rect><text x="0" y="0" transform="matrix(1,0,0,1,5,17)"><tspan class="quote">“</tspan><tspan>Ca</tspan><tspan class="quote">”</tspan></text></g></g><g class="match-fragment subexp" transform="matrix(1,0,0,1,44,0)"><rect rx="3" ry="3" class="subexp-box" transform="matrix(1,0,0,1,0,14)" width="87" height="73"></rect><text x="0" y="0" transform="matrix(1,0,0,1,0,14)" class="subexp-label"><tspan>group #1</tspan></text><g transform="matrix(1,0,0,1,10,24)" class="regexp"><path d="M0,26.5c10,0 10,-14.5 20,-14.5M67,26.5c-10,0 -10,-14.5 -20,-14.5M0,26.5c10,0 10,14.5 20,14.5M67,26.5c-10,0 -10,14.5 -20,14.5"></path><g transform="matrix(1,0,0,1,20,0)" class="regexp-matches"><path d="M0,12h3M24,12H27M0,41h0M27,41H27"></path><g class="match match-fragment literal" transform="matrix(1,0,0,1,3,0)"><g class="label"><rect width="21" height="24" rx="3" ry="3"></rect><text x="0" y="0" transform="matrix(1,0,0,1,5,17)"><tspan class="quote">“</tspan><tspan>t</tspan><tspan class="quote">”</tspan></text></g></g><g class="match match-fragment literal" transform="matrix(1,0,0,1,0,29)"><g class="label"><rect width="27" height="24" rx="3" ry="3"></rect><text x="0" y="0" transform="matrix(1,0,0,1,5,17)"><tspan class="quote">“</tspan><tspan>D</tspan><tspan class="quote">”</tspan></text></g></g></g></g></g><g class="match-fragment literal" transform="matrix(1,0,0,1,141,38.5)"><g class="label"><rect width="32" height="24" rx="3" ry="3"></rect><text x="0" y="0" transform="matrix(1,0,0,1,5,17)"><tspan class="quote">“</tspan><tspan>og</tspan><tspan class="quote">”</tspan></text></g></g></g><path d="M10,50.5H0M183,50.5H193"></path><circle cx="0" cy="50.5" r="5"></circle><circle cx="193" cy="50.5" r="5"></circle></g></svg>
          